# xmcd
#
# Track frame offsets: 
#        150
#        19561
#        34932
#        53703
#        73916
#        88793
#        107870
#        125171
#        148560
#        165317
#        182834
#
# Disc length: 2529 seconds
#
# Revision: 1
# Processed by: cddbd v1.5.2PL0 Copyright (c) Steve Scherf et al.
# Submitted via: ExactAudioCopy v1.0b4
#
DISCID=9909df0b
DTITLE=Leslie West - Still Climbing
DYEAR=1997
DGENRE=Blues Rock
TTITLE0=Dyin' Since The Day I Was Born
TTITLE1=Busted, Disgusted or Dead
TTITLE2=Fade Into You
TTITLE3=Not Over You At All
TTITLE4=Tales Of Woe
TTITLE5=Feeling Good
TTITLE6=Hatfield or McCoy
TTITLE7=When a Man Loves a Woman
TTITLE8=Long Red
TTITLE9=Don't Ever Let Me Go
TTITLE10=Rev Jones Time (Somewhere over the Rainbow)
EXTD=YEAR: 1996
EXTT0=
EXTT1=
EXTT2=
EXTT3=
EXTT4=
EXTT5=
EXTT6=
EXTT7=
EXTT8=
EXTT9=
EXTT10=
PLAYORDER=
